<?xml version="1.0" encoding="utf-8"?>
<svg width="953" height="694" viewBox="0 0 953 694" fill="none" xmlns="http://www.w3.org/2000/svg" xmlns:bx="https://boxy-svg.com"><defs><bx:export><bx:file format="svg" path="map.svg"/></bx:export></defs><g opacity="0.95"><path d="M678.239 54.3363H581.97V105.714H678.239V54.3363Z" stroke="#333333" style="fill: rgb(184, 87, 60);" id="Escritorio" class="Area-04"/><g class="Animais"><path d="M774.508 56.63H690.718V81.4014H774.508V56.63Z" id="Baia-01" class="Animais" stroke="#333333" style="fill: rgb(99, 44, 44);"/><path d="M774.508 91.0347H690.718V115.806H774.508V91.0347Z" id="Baia-02" class="Animais" stroke="#333333" style="fill: rgb(99, 44, 44);"/><path d="M774.508 143.868H690.718V168.639H774.508V143.868Z" id="Baia-03" class="Animais" stroke="#333333" style="fill: rgb(99, 44, 44);"/><path d="M774.508 198.797H690.718V223.568H774.508V198.797Z" class="Animais" id="Baia-04" stroke="#333333" style="fill: rgb(99, 44, 44);"/><path d="M774.79 227H691V251.771H774.79V227Z" class="Animais" id="Baia-05" stroke="#333333" style="fill: rgb(99, 44, 44);"/><path d="M774.508 306.41H690.718V331.182H774.508V306.41Z" class="Animais" id="Baia-06" stroke="#333333" style="fill: rgb(99, 44, 44);"/><path d="M774.508 393.381H690.718V418.152H774.508V393.381Z" class="Animais" id="Baia-08" stroke="#333333" style="fill: rgb(99, 44, 44);"/><path d="M 775.312 347.28 L 691.522 347.28 L 691.522 372.051 L 775.312 372.051 L 775.312 347.28 Z" class="Animais" id="Baia-07" style="stroke-width: 1px; fill: rgb(99, 44, 44);" stroke="#333333"/></g><g class="Central"><path d="M678.239 129.535H435.29V324.867H678.239V129.535Z" stroke="#333333" style="fill: rgb(73, 111, 188);" class="Central" id="Central"/><path d="M501.101 136.361H467.43V196.221H501.101V136.361Z" stroke="#333333" style="fill: rgb(73, 111, 188);" id="Bombeiros" class="Central"/><path d="M666.903 136.361H594.46V196.221H666.903V136.361Z" stroke="#333333" style="fill: rgb(73, 111, 188);" id="Atendimento-Rodeio" class="Central"/><path d="M594.46 136.361H501.101V196.221H594.46V136.361Z" stroke="#333333" style="fill: rgb(73, 111, 188);" class="Central"/><path d="M666.903 196.221H467.43V288.111H666.903V196.221Z" stroke="#333333" style="fill: rgb(73, 111, 188);" class="Central" id="Area-de-Shows"/><path d="M574.054 294.412H542.934V318.796H574.054V294.412Z" stroke="#333333" style="fill: rgb(73, 111, 188);" id="Banheiro" class="Central"/><path d="M461.308 196.221H443.962V231.402H461.308V196.221Z" stroke="#333333" style="fill: rgb(73, 111, 188);" id="Escritorio" class="Central"/><path d="M461.308 163.665H443.962V193.595H461.308V163.665Z" stroke="#333333" style="fill: rgb(73, 111, 188);" id="Escritorio" class="Central"/></g><g class="AreaInicio"><path d="M322.802 571.292H207.943V661.649H322.802V571.292Z" stroke="#333333" stroke-width="1.12346" style="fill: rgb(230, 217, 69);"/><path d="M322.802 483.382H93.0852V579.049H322.802V483.382Z" stroke="#333333" style="fill: rgb(230, 217, 69);"/><path d="M202.789 500.953H156.631V518.85H202.789V500.953Z" stroke="#333333" style="fill: rgb(230, 217, 69);"/><path d="M301.428 483.382H240.411V509.902H301.428V483.382Z" stroke="#333333" class="Animais" id="Baia-09" style="fill: rgb(230, 217, 69);"/><path d="M230.927 538.049H217.965V579.375H230.927V538.049Z" stroke="#333333" style="fill: rgb(230, 217, 69);"/><path d="M262.271 589.625C283.897 589.625 301.429 571.778 301.429 549.763C301.429 527.748 283.897 509.902 262.271 509.902C240.644 509.902 223.113 527.748 223.113 549.763C223.113 571.778 240.644 589.625 262.271 589.625Z" stroke="#333333" stroke-width="1.14851" style="fill: rgb(230, 217, 69);"/><path d="M322.801 555.295H314.582V652.265H322.801V555.295Z" stroke="#333333" style="fill: rgb(230, 217, 69);"/></g><g class="B1"><path d="M248.739 64.5513H223.226V83.8849H248.739V64.5513Z" fill="#F3F3F3" stroke="#333333" class="Area-01" id="A1-01"/><path d="M248.739 83.8849H223.226V95.1387H248.739V83.8849Z" fill="#F3F3F3" stroke="#333333" class="Area-01" id="A1-02"/><path d="M248.739 94.4602H223.226V105.714H248.739V94.4602Z" fill="#F3F3F3" stroke="#333333" class="Area-01" id="A1-03"/><path d="M248.739 104.552H223.226V115.806H248.739V104.552Z" fill="#F3F3F3" stroke="#333333" class="Area-01" id="A1-04"/><path d="M248.513 127H223V138.254H248.513V127Z" fill="#F3F3F3" stroke="#333333" class="Area-01" id="A1-05"/><path d="M248.739 168.39H223.226V188.871H248.739V168.39Z" fill="#F3F3F3" stroke="#333333" stroke-width="1.34905" class="Area-01" id="A1-08"/><path d="M248.739 188.871H223.226V209.352H248.739V188.871Z" fill="#F3F3F3" stroke="#333333" stroke-width="1.34905" id="A1-A1" class="Area-01"/><path d="M248.739 209.352H223.226V229.834H248.739V209.352Z" fill="#F3F3F3" stroke="#333333" stroke-width="1.34905" class="Area-01" id="A1-A2"/><path d="M248.739 229.834H223.226V250.315H248.739V229.834Z" fill="#F3F3F3" stroke="#333333" stroke-width="1.34905" class="Area-01" id="A1-A3"/><path d="M248.739 250.315H223.226V270.797H248.739V250.315Z" fill="#F3F3F3" stroke="#333333" stroke-width="1.34905" class="Area-01" id="A1-A4"/><path d="M248.513 138H223V151.844H248.513V138Z" fill="#F3F3F3" stroke="#333333" stroke-width="1.10911" class="Area-01" id="A1-06"/><path d="M248.625 152.157H223.113V168.662H248.625V152.157Z" fill="#F3F3F3" stroke="#333333" stroke-width="1.21103" class="Area-01" id="A2-A7"/></g><g class="B2"><path d="M249 282H223V303H249V282Z" fill="#3B9CA5" stroke="#333333" stroke-width="1.34905" class="Area-02" id="A2-A5"/><path d="M249 303H223V323H249V303Z" fill="#3B9CA5" stroke="#333333" stroke-width="1.34905" class="Area-02" id="A2-A6"/><path d="M249 323H223V336H249V323Z" fill="#3B9CA5" stroke="#333333" stroke-width="1.06916" id="A2-A7" class="Area-02"/><path d="M249 336H223V349H249V336Z" fill="#3B9CA5" stroke="#333333" stroke-width="1.06916" class="Area-02" id="A2-A8"/><path d="M249 347H223V360H249V347Z" fill="#3B9CA5" stroke="#333333" stroke-width="1.06916" class="Area-02" id="A2-01"/><path d="M249 357H223V370H249V357Z" fill="#3B9CA5" stroke="#333333" stroke-width="1.06916" class="Area-02" id="A2-02"/><path d="M249 367H223V382H249V367Z" fill="#3B9CA5" stroke="#333333" stroke-width="1.06916" class="Area-02" id="A2-03"/><path d="M248.739 408.792H223.226V421.656H248.739V408.792Z" fill="#3B9CA5" stroke="#333333" stroke-width="1.06916" class="Area-02" id="Area-Cultura-01"/><path d="M248.739 418.152H223.226V431.017H248.739V418.152Z" fill="#3B9CA5" stroke="#333333" stroke-width="1.06916" class="Area-02" id="Area-Cultura-02"/><path d="M248.739 431.017H223.226V443.881H248.739V431.017Z" fill="#3B9CA5" stroke="#333333" stroke-width="1.06916" class="Area-02" id="Area-Cultura-03"/><path d="M248.739 448.181H223.226V474.354H248.739V448.181Z" fill="#3B9CA5" stroke="#333333" stroke-width="1.52503" class="Area-02" id="Area-Cultura-05"/><path d="M248.739 377.97H223.226V408.792H248.739V377.97Z" fill="#3B9CA5" stroke="#333333" stroke-width="1.65494" class="Area-02" id="Oca-Indigena"/><path d="M248.739 443.881H223.226V456.745H248.739V443.881Z" fill="#3B9CA5" stroke="#333333" stroke-width="1.06916" class="Area-02" id="Area-Cultura-04"/></g><g class="B3"><path d="M334.977 132.687H287.532V156.253H334.977V132.687Z" fill="#E9DCC3" stroke="#333333" class="Area-03" id="A3-01"/><path d="M287.532 132.687H264.53V178.63H287.532V132.687Z" fill="#E9DCC3" stroke="#333333" class="Area-03" id="A3-A1"/><path d="M334.977 155.659H287.532V178.63H334.977V155.659Z" fill="#E9DCC3" stroke="#333333" class="Area-03" id="A3-02"/><path d="M334.977 178.63H285.273V198.797H334.977V178.63Z" fill="#E9DCC3" stroke="#333333" class="Area-03" id="A3-03"/><path d="M334.977 198.797H285.273V219.593H334.977V198.797Z" fill="#E9DCC3" stroke="#333333" class="Area-03" id="A3-04"/><path d="M334.977 217.213H285.273V242.166H334.977V217.213Z" fill="#E9DCC3" stroke="#333333" class="Area-03" id="A3-05"/><path d="M291.33 242.166H259.008V273.378H291.33V242.166Z" fill="#E9DCC3" stroke="#333333" class="Area-03" id="A3-A9"/><path d="M334.977 242.166H291.33V273.378H334.977V242.166Z" fill="#E9DCC3" stroke="#333333" class="Area-03" id="A3-06"/><path d="M332.397 285.316H282.609V306.647H332.397V285.316Z" fill="#E9DCC3" stroke="#333333" class="Area-03" id="A3-07"/><path d="M282.609 294.412H259.008V306.41H282.609V294.412Z" fill="#E9DCC3" stroke="#333333" class="Area-03" id="A3-19"/><path d="M332.397 306.41H282.609V324.867H332.397V306.41Z" fill="#E9DCC3" stroke="#333333" class="Area-03" id="A3-08"/><path d="M332.397 324.867H282.609V347H332.397V324.867Z" fill="#E9DCC3" stroke="#333333" class="Area-03" id="A3-09"/><path d="M332.397 347H282.609V363.416H332.397V347Z" fill="#E9DCC3" stroke="#333333" class="Area-03" id="A3-10"/><path d="M332.397 363.416H282.609V384.756H332.397V363.416Z" fill="#E9DCC3" stroke="#333333" class="Area-03" id="A3-11"/><path d="M332.397 384.756H282.609V408.792H332.397V384.756Z" fill="#E9DCC3" stroke="#333333" class="Area-03" id="A3-12"/><path d="M282.609 306.41H259.008V408.792H282.609V306.41Z" fill="#E9DCC3" stroke="#333333" class="Area-03" id="Praca-de-Alimentacao"/><path d="M332.396 408.792H287.532V431.017H332.396V408.792Z" fill="#E9DCC3" stroke="#333333" class="Area-03" id="A3-13"/><path d="M332.396 431.017H287.532V454.835H332.396V431.017Z" fill="#E9DCC3" stroke="#333333" class="Area-03" id="A3-14"/><path d="M332.396 454.835H287.532V474.354H332.396V454.835Z" fill="#E9DCC3" stroke="#333333" class="Area-03" id="A3-15"/><path d="M287.532 408.792H259.008V441.971H287.532V408.792Z" fill="#E9DCC3" stroke="#333333" class="Area-03" id="Espaco-Hackton"/><path d="M287.532 441.971H259.008V474.354H287.532V441.971Z" fill="#E9DCC3" stroke="#333333" class="Area-03" id="Fazendinha"/><path d="M285.273 178.63H264.53V231.402H285.273V178.63Z" fill="#E9DCC3" stroke="#333333" class="Area-03" id="Ambulancia"/><path d="M270.92 231.402H259.008V242.166H270.92V231.402Z" fill="#E9DCC3" stroke="#333333" class="Area-03" id="Pergolado"/><path d="M285.273 202.929H270.92V242.166H285.273V202.929Z" fill="#E9DCC3" stroke="#333333" class="Area-03" id="Banheiro"/><path d="M282.609 285.08H259.008V294.412H282.609V285.08Z" fill="#E9DCC3" stroke="#333333" class="Area-03" id="A3-20"/></g><g class="B4"><path d="M390.324 46.9967H255.28V115.806H390.324V46.9967Z" fill="#D2DBED" stroke="black"/><path d="M555 46H390V116H555V46Z" fill="#B8573C" stroke="#333333" stroke-width="0.991967" class="Area-04"/><path d="M323 46H300V116H323V46Z" fill="#B8573C" stroke="#333333" stroke-width="1.04188" class="Area-04" id="A4-04"/><path d="M340 84H323V116H340V84Z" fill="#B8573C" stroke="#333333" class="Area-04" id="A4-03"/><path d="M373 84H340V116H373V84Z" fill="#B8573C" stroke="#333333" class="Area-04" id="A4-02"/><path d="M390 46H323V84H390V46Z" fill="#B8573C" stroke="#333333" class="Area-04"/><path d="M390 84H373V116H390V84Z" fill="#B8573C" stroke="#333333" class="Area-04" id="A4-01"/><path d="M410.544 89.5118H390.323V110.179H410.544V89.5118Z" fill="#B8573C" stroke="#333333" class="Area-04"/><path d="M512.094 54.3363H400.434V83.8849H512.094V54.3363Z" fill="#B8573C" stroke="#333333" class="Area-04" id="Escritorio"/><path d="M554.793 46.3086H515.86V59.4517H554.793V46.3086Z" fill="#B8573C" stroke="#333333" class="Area-04"/><path d="M300 46H255V116H300V46Z" fill="#B8573C" stroke="#333333" class="Area-04" id="A4-05"/><path d="M534.645 93.9918C541.828 93.9918 547.652 88.2009 547.652 81.0573C547.652 73.9138 541.828 68.1228 534.645 68.1228C527.461 68.1228 521.638 73.9138 521.638 81.0573C521.638 88.2009 527.461 93.9918 534.645 93.9918Z" fill="#B8573C" stroke="#333333" class="Area-04"/></g><g class="B5"><path d="M390.324 160.41H349.882V178.63H390.324V160.41Z" fill="#2D6F6A" stroke="#333333" class="Area-05" id="A5-04"/><path d="M390.324 178.63H349.882V196.851H390.324V178.63Z" fill="#2D6F6A" stroke="#333333" class="Area-05" id="A5-06"/><path d="M390.324 195.906H349.882V214.126H390.324V195.906Z" fill="#2D6F6A" stroke="#333333" class="Area-05" id="A5-08"/><path d="M390.324 214.458H349.882V232.679H390.324V214.458Z" fill="#2D6F6A" stroke="#333333" class="Area-05" id="A5-10"/><path d="M390.324 233.056H349.882V251.276H390.324V233.056Z" fill="#2D6F6A" stroke="#333333" class="Area-05" id="A5-12"/><path d="M390.324 251.276H349.882V269.497H390.324V251.276Z" fill="#2D6F6A" stroke="#333333" class="Area-05" id="A5-14"/><path d="M390.324 269.891H349.882V288.111H390.324V269.891Z" fill="#2D6F6A" stroke="#333333" class="Area-05" id="A5-16"/><path d="M390.324 288.384H349.882V306.604H390.324V288.384Z" fill="#2D6F6A" stroke="#333333" class="Area-05" id="A5-18"/><path d="M390.324 306.647H349.882V324.867H390.324V306.647Z" fill="#2D6F6A" stroke="#333333" class="Area-05" id="A5-20"/><path d="M430.765 306.647H390.323V324.867H430.765V306.647Z" fill="#2D6F6A" stroke="#333333" class="Area-05" id="A5-19"/><path d="M430.765 288.111H390.323V306.332H430.765V288.111Z" fill="#2D6F6A" stroke="#333333" class="Area-05" id="A5-17"/><path d="M430.765 269.891H390.323V288.111H430.765V269.891Z" fill="#2D6F6A" stroke="#333333" class="Area-05" id="A5-15"/><path d="M430.765 251.276H390.323V269.497H430.765V251.276Z" fill="#2D6F6A" stroke="#333333" class="Area-05" id="A5-13"/><path d="M430.765 233.056H390.323V251.276H430.765V233.056Z" fill="#2D6F6A" stroke="#333333" class="Area-05" id="A5-11"/><path d="M430.765 214.458H390.323V232.679H430.765V214.458Z" fill="#2D6F6A" stroke="#333333" class="Area-05" id="A5-09"/><path d="M430.765 195.906H390.323V214.126H430.765V195.906Z" fill="#2D6F6A" stroke="#333333" class="Area-05" id="A5-07"/><path d="M430.765 177.685H390.323V195.906H430.765V177.685Z" fill="#2D6F6A" stroke="#333333" class="Area-05" id="A5-05"/><path d="M430.765 160.41H390.323V178.63H430.765V160.41Z" fill="#2D6F6A" stroke="#333333" class="Area-05" id="A5-03"/><path d="M430.765 142.189H390.323V160.41H430.765V142.189Z" fill="#2D6F6A" stroke="#333333" class="Area-05" id="A5-01"/><path d="M390.324 142.189H349.882V160.41H390.324V142.189Z" fill="#2D6F6A" stroke="#333333" class="Area-05" id="A5-02"/></g><g class="B6"><path d="M390.324 364.013H349.882V382.234H390.324V364.013Z" fill="#8B5E3C" stroke="#333333" class="Area-06" id="A6-02"/><path d="M390.324 382.234H349.882V400.454H390.324V382.234Z" fill="#8B5E3C" stroke="#333333" class="Area-06" id="A6-04"/><path d="M390.324 400.454H349.882V418.675H390.324V400.454Z" fill="#8B5E3C" stroke="#333333" class="Area-06" id="A6-06"/><path d="M390.324 418.675H349.882V436.895H390.324V418.675Z" fill="#8B5E3C" stroke="#333333" class="Area-06" id="A6-08"/><path d="M390.324 436.895H349.882V455.116H390.324V436.895Z" fill="#8B5E3C" stroke="#333333" class="Area-06" id="A6-10"/><path d="M430.765 364.013H390.323V382.234H430.765V364.013Z" fill="#8B5E3C" stroke="#333333" class="Area-06" id="A6-01"/><path d="M430.765 382.234H390.323V400.454H430.765V382.234Z" fill="#8B5E3C" stroke="#333333" class="Area-06" id="A6-03"/><path d="M430.765 400.454H390.323V418.675H430.765V400.454Z" fill="#8B5E3C" stroke="#333333" class="Area-06" id="A6-05"/><path d="M430.765 418.675H390.323V436.895H430.765V418.675Z" fill="#8B5E3C" stroke="#333333" class="Area-06" id="A6-07"/><path d="M430.765 436.895H390.323V455.116H430.765V436.895Z" fill="#8B5E3C" stroke="#333333" class="Area-06" id="A6-09"/></g><g class="B7"><path d="M671.388 571.292H423.915V653.892H671.388V571.292Z" fill="#3D3D3D" stroke="#333333" style="" id="Panela-de-Pressao" class="Parque-de-Diversões"/><path d="M430.765 483.382H349.882V653.892H430.765V483.382Z" fill="#3D3D3D" stroke="#333333" style="" id="P2" class="Parque-de-Diversões"/></g><g class="B8"><path d="M464.646 337.544H443.962V369.32H464.646V337.544Z" fill="#C9E58A" stroke="#333333" id="A8-09" class="Area-8"/><path d="M464.646 369.32H443.962V401.096H464.646V369.32Z" fill="#C9E58A" stroke="#333333" id="A8-10" class="Area-8"/><path d="M485.329 369.369H464.646V401.145H485.329V369.369Z" fill="#C9E58A" stroke="#333333" id="A8-08" class="Area-8"/><path d="M506.013 369.369H485.33V401.145H506.013V369.369Z" fill="#C9E58A" stroke="#333333" id="A8-06" class="Area-8"/><path d="M526.696 369.32H506.013V401.096H526.696V369.32Z" fill="#C9E58A" stroke="#333333" id="A8-04" class="Area-8"/><path d="M547.38 369.32H526.696V401.096H547.38V369.32Z" fill="#C9E58A" stroke="#333333" id="A8-02" class="Area-8"/><path d="M506.013 337.593H485.33V369.369H506.013V337.593Z" fill="#C9E58A" stroke="#333333" id="A8-05" class="Area-8"/><path d="M526.696 337.544H506.013V369.32H526.696V337.544Z" fill="#C9E58A" stroke="#333333" id="A8-03" class="Area-8"/><path d="M547.38 337.643H526.696V369.418H547.38V337.643Z" fill="#C9E58A" stroke="#333333" id="A8-01" class="Area-8"/><path d="M485.329 337.544H464.646V369.32H485.329V337.544Z" fill="#C9E58A" stroke="#333333" id="A8-07" class="Area-8"/></g><g class="B9"><path d="M464.646 409.564H443.962V458.162H464.646V409.564Z" fill="#004D43" stroke="#333333" class="Area-09" id="A9-09"/><path d="M485.329 409.564H464.646V458.162H485.329V409.564Z" fill="#004D43" stroke="#333333" class="Area-09" id="A9-07"/><path d="M506.013 409.564H485.33V458.162H506.013V409.564Z" fill="#004D43" stroke="#333333" class="Area-09" id="A9-05"/><path d="M526.696 409.564H506.013V458.162H526.696V409.564Z" fill="#004D43" stroke="#333333" class="Area-09" id="A9-03"/><path d="M547.38 409.564H526.696V458.162H547.38V409.564Z" fill="#004D43" stroke="#333333" class="Area-09" id="A9-01"/><path d="M464.646 458.162H443.962V471.275H464.646V458.162Z" fill="#004D43" stroke="#333333" class="Area-09" id="A9-10"/><path d="M485.329 458.038H464.646V471.151H485.329V458.038Z" fill="#004D43" stroke="#333333" class="Area-09" id="A9-08"/><path d="M506.013 458.038H485.33V471.151H506.013V458.038Z" fill="#004D43" stroke="#333333" class="Area-09" id="A9-06"/><path d="M526.696 458.038H506.013V471.151H526.696V458.038Z" fill="#004D43" stroke="#333333" class="Area-09" id="A9-04"/><path d="M547.38 458.162H526.696V471.275H547.38V458.162Z" fill="#004D43" stroke="#333333" class="Area-09" id="A9-02"/></g><g class="B10"><path d="M590.418 337.593H567.282V369.32H590.418V337.593Z" fill="#5C7C38" stroke="#333333" id="A10-09" class="Area-10"/><path d="M613.554 337.643H590.418V369.369H613.554V337.643Z" fill="#5C7C38" stroke="#333333" id="A10-07" class="Area-10"/><path d="M636.691 337.643H613.554V369.369H636.691V337.643Z" fill="#5C7C38" stroke="#333333" id="A10-05" class="Area-10"/><path d="M659.827 337.643H636.69V369.369H659.827V337.643Z" fill="#5C7C38" stroke="#333333" id="A10-03" class="Area-10"/><path d="M678.471 337.643H655.335V369.369H678.471V337.643Z" fill="#5C7C38" stroke="#333333" id="A10-01" class="Area-10"/><path d="M590.418 368.728H567.282V400.454H590.418V368.728Z" fill="#5C7C38" stroke="#333333" id="A10-10" class="Area-10"/><path d="M613.554 368.728H590.418V400.454H613.554V368.728Z" fill="#5C7C38" stroke="#333333" id="A10-08" class="Area-10"/><path d="M636.691 368.728H613.554V400.454H636.691V368.728Z" fill="#5C7C38" stroke="#333333" id="A10-06" class="Area-10"/><path d="M659.827 368.728H636.69V400.454H659.827V368.728Z" fill="#5C7C38" stroke="#333333" id="A10-04" class="Area-10"/><path d="M 678.564 368.821 L 655.428 368.821 L 655.428 400.547 L 678.564 400.547 L 678.564 368.821 Z" fill="#5C7C38" stroke="#333333" id="A10-02" class="Area-10"/></g><g class="B11"><path d="M666.903 409.564H590.418V461.267H666.903V409.564Z" fill="#4E9B59" stroke="#333333" id="Agropec-Banking" class="Area-11"/><path d="M590.418 409.564H570.056V441.971H590.418V409.564Z" fill="#4E9B59" stroke="#333333" class="Area-11" id="A11-01"/><path d="M590.418 441.971H570.056V471.151H590.418V441.971Z" fill="#4E9B59" stroke="#333333" class="Area-11" id="A11-02"/><path d="M678.239 409.565H666.903V428.285H678.239V409.565Z" fill="#4E9B59" stroke="#333333" stroke-width="1.24425" class="Area-11" id="A11-11"/><path d="M678.239 424.971H666.903V437.063H678.239V424.971Z" fill="#4E9B59" stroke="#333333" class="Area-11" id="A11-10"/><path d="M678.239 436.88H666.903V448.972H678.239V436.88Z" fill="#4E9B59" stroke="#333333" class="Area-11" id="A11-09"/><path d="M678.239 447.631H666.903V461.267H678.239V447.631Z" fill="#4E9B59" stroke="#333333" stroke-width="1.06195" class="Area-11" id="A11-08"/><path d="M605.082 461.267H590.418V471.151H605.082V461.267Z" fill="#4E9B59" stroke="#333333" class="Area-11"/><path d="M619.746 461.391H605.082V471.275H619.746V461.391Z" fill="#4E9B59" stroke="#333333" class="Area-11" id="A11-03"/><path d="M634.41 461.391H619.746V471.275H634.41V461.391Z" fill="#4E9B59" stroke="#333333" class="Area-11" id="A11-04"/><path d="M649.075 461.267H634.411V471.151H649.075V461.267Z" fill="#4E9B59" stroke="#333333" class="Area-11" id="A11-05"/><path d="M663.739 461.267H649.075V471.151H663.739V461.267Z" fill="#4E9B59" stroke="#333333" class="Area-11" id="A11-06"/><path d="M678.239 461.267H663.575V471.151H678.239V461.267Z" fill="#4E9B59" stroke="#333333" class="Area-11" id="A11-07"/></g><g class="B12"><path d="M462.977 482.552H442.293V555.148H462.977V482.552Z" fill="#8BBF4A" stroke="#333333" stroke-width="0.994286" class="Area-12" id="Galeria-do-Parque"/><path d="M490.448 482.699H462.977V525.91H490.448V482.699Z" fill="#8BBF4A" stroke="#333333" class="Area-12" id="A12-B1"/><path d="M517.92 482.699H490.448V525.91H517.92V482.699Z" fill="#8BBF4A" stroke="#333333" class="Area-12" id="A12-B2"/><path d="M545.391 482.699H517.92V525.91H545.391V482.699Z" fill="#8BBF4A" stroke="#333333" class="Area-12" id="A12-B3"/><path d="M572.862 482.699H545.391V525.91H572.862V482.699Z" fill="#8BBF4A" stroke="#333333" class="Area-12" id="A12-B4"/><path d="M600.334 482.699H572.862V525.91H600.334V482.699Z" fill="#8BBF4A" stroke="#333333" class="Area-12" id="A12-B5"/><path d="M627.805 482.699H600.333V525.91H627.805V482.699Z" fill="#8BBF4A" stroke="#333333" class="Area-12" id="A12-B6"/><path d="M673.562 482.699H646.091V525.91H673.562V482.699Z" fill="#8BBF4A" stroke="#333333" class="Area-12" id="A12-B8"/><path d="M655.478 482.699H628.007V525.91H655.478V482.699Z" fill="#8BBF4A" stroke="#333333" class="Area-12" id="A12-B7"/><path d="M481.79 525.91H462.977V555.295H481.79V525.91Z" fill="#8BBF4A" stroke="#333333" class="Area-12" id="A12-01"/><path d="M490.448 525.91H481.79V555.295H490.448V525.91Z" fill="#8BBF4A" stroke="#333333" class="Area-12" id="A12-C1"/><path d="M499.106 525.91H490.448V555.295H499.106V525.91Z" fill="#8BBF4A" stroke="#333333" class="Area-12" id="A12-C2"/><path d="M507.765 525.91H499.106V555.295H507.765V525.91Z" fill="#8BBF4A" stroke="#333333" class="Area-12" id="A12-C3"/><path d="M516.423 525.91H507.765V555.295H516.423V525.91Z" fill="#8BBF4A" stroke="#333333" class="Area-12" id="A12-C4"/><path d="M525.013 525.91H516.355V555.295H525.013V525.91Z" fill="#8BBF4A" stroke="#333333" class="Area-12" id="A12-C5"/><path d="M533.671 525.91H525.013V555.295H533.671V525.91Z" fill="#8BBF4A" stroke="#333333" class="Area-12" id="A12-C6"/><path d="M602.079 525.91H593.421V555.295H602.079V525.91Z" fill="#8BBF4A" stroke="#333333" class="Area-12" id="A12-C9"/><path d="M610.541 525.91H601.883V555.295H610.541V525.91Z" fill="#8BBF4A" stroke="#333333" class="Area-12" id="A12-C10"/><path d="M619.199 525.91H610.541V555.295H619.199V525.91Z" fill="#8BBF4A" stroke="#333333" class="Area-12" id="A12-C11"/><path d="M627.805 525.91H619.147V555.295H627.805V525.91Z" fill="#8BBF4A" stroke="#333333" class="Area-12" id="A12-C12"/><path d="M636.463 525.91H627.805V555.295H636.463V525.91Z" fill="#8BBF4A" stroke="#333333" class="Area-12" id="A12-C13"/><path d="M645.121 525.91H636.463V555.295H645.121V525.91Z" fill="#8BBF4A" stroke="#333333" class="Area-12" id="A12-C14"/><path d="M667.652 525.91H659.827V555.295H667.652V525.91Z" fill="#8BBF4A" stroke="#333333" stroke-width="0.95066" class="Area-12" id="A12-C17"/><path d="M673.562 525.91H665.738V555.295H673.562V525.91Z" fill="#8BBF4A" stroke="#333333" stroke-width="0.95066" class="Area-12" id="A12-C18"/><path d="M584.566 525.91H575.908V555.295H584.566V525.91Z" fill="#8BBF4A" stroke="#333333" class="Area-12" id="A12-C7"/><path d="M593.225 525.91H584.566V555.295H593.225V525.91Z" fill="#8BBF4A" stroke="#333333" class="Area-12" id="A12-C8"/><path d="M653.404 525.91H644.746V555.295H653.404V525.91Z" fill="#8BBF4A" stroke="#333333" class="Area-12" id="A12-C15"/><path d="M660.736 525.91H652.078V555.295H660.736V525.91Z" fill="#8BBF4A" stroke="#333333" class="Area-12" id="A12-C16"/><path d="M575.915 525.91H533.671V555.295H575.915V525.91Z" fill="#8BBF4A" stroke="#333333" class="Area-12" id="Banheiros"/></g><g class="B13"><path d="M774.508 448.403H690.718V535.559H774.508V448.403Z" fill="#D89D3C" stroke="#333333" id="Panela-de-Pressao" class="Projeto-Protocolado"/></g></g><g style="" transform="matrix(0.042939, 0, 0, 0.042939, 319.761536, 652.433655)"><polyline points="442.662 578.972 542.662 478.972 442.662 378.972" style="stroke-width: 12.5px; stroke: rgb(0, 0, 0);"/><line x1="192.662" y1="478.972" x2="542.662" y2="478.972" style="stroke-width: 12.5px; stroke: rgb(0, 0, 0);"/><polyline points="292.662 328.972 292.662 178.972 692.662 178.972 692.662 778.972 292.662 778.972 292.662 628.972" style="stroke-width: 12.5px; stroke: rgb(0, 0, 0);"/></g><g style="" transform="matrix(0.034166, 0, 0, 0.034166, 554.941345, 20.906935)"><polyline points="442.662 578.972 542.662 478.972 442.662 378.972" style="stroke-width: 12.5px; stroke: rgb(0, 0, 0);"/><line x1="192.662" y1="478.972" x2="542.662" y2="478.972" style="stroke-width: 12.5px; stroke: rgb(0, 0, 0);"/><polyline points="292.662 328.972 292.662 178.972 692.662 178.972 692.662 778.972 292.662 778.972 292.662 628.972" style="stroke-width: 12.5px; stroke: rgb(0, 0, 0);"/></g><g style="" transform="matrix(0.035532, 0, 0, 0.035532, 433.143433, 251.908966)"><polyline points="442.662 578.972 542.662 478.972 442.662 378.972" style="stroke-width: 12.5px; stroke: rgb(0, 0, 0);"/><line x1="192.662" y1="478.972" x2="542.662" y2="478.972" style="stroke-width: 12.5px; stroke: rgb(0, 0, 0);"/><polyline points="292.662 328.972 292.662 178.972 692.662 178.972 692.662 778.972 292.662 778.972 292.662 628.972" style="stroke-width: 12.5px; stroke: rgb(0, 0, 0);"/></g><g style="" transform="matrix(0.028979, 0, 0, 0.028979, 199.106216, 260.205566)"><polyline points="442.662 578.972 542.662 478.972 442.662 378.972" style="stroke-width: 12.5px; stroke: rgb(0, 0, 0);"/><line x1="192.662" y1="478.972" x2="542.662" y2="478.972" style="stroke-width: 12.5px; stroke: rgb(0, 0, 0);"/><polyline points="292.662 328.972 292.662 178.972 692.662 178.972 692.662 778.972 292.662 778.972 292.662 628.972" style="stroke-width: 12.5px; stroke: rgb(0, 0, 0);"/></g><g style="" transform="matrix(0.029868, 0, 0, 0.029868, 222.49913, 36.764091)"><polyline points="442.662 578.972 542.662 478.972 442.662 378.972" style="stroke-width: 12.5px; stroke: rgb(0, 0, 0);"/><line x1="192.662" y1="478.972" x2="542.662" y2="478.972" style="stroke-width: 12.5px; stroke: rgb(0, 0, 0);"/><polyline points="292.662 328.972 292.662 178.972 692.662 178.972 692.662 778.972 292.662 778.972 292.662 628.972" style="stroke-width: 12.5px; stroke: rgb(0, 0, 0);"/></g><g style="" transform="matrix(0.028238, 0, 0, 0.028238, 197.396454, 105.614464)"><polyline points="442.662 578.972 542.662 478.972 442.662 378.972" style="stroke-width: 12.5px; stroke: rgb(0, 0, 0);"/><line x1="192.662" y1="478.972" x2="542.662" y2="478.972" style="stroke-width: 12.5px; stroke: rgb(0, 0, 0);"/><polyline points="292.662 328.972 292.662 178.972 692.662 178.972 692.662 778.972 292.662 778.972 292.662 628.972" style="stroke-width: 12.5px; stroke: rgb(0, 0, 0);"/></g><g style="" transform="matrix(0.028386, 0, 0, 0.028386, 194.181534, 457.28299)"><polyline points="442.662 578.972 542.662 478.972 442.662 378.972" style="stroke-width: 12.5px; stroke: rgb(0, 0, 0);"/><line x1="192.662" y1="478.972" x2="542.662" y2="478.972" style="stroke-width: 12.5px; stroke: rgb(0, 0, 0);"/><polyline points="292.662 328.972 292.662 178.972 692.662 178.972 692.662 778.972 292.662 778.972 292.662 628.972" style="stroke-width: 12.5px; stroke: rgb(0, 0, 0);"/></g><g transform="matrix(0.179331, 0, 0, 0.179331, 554.596802, 422.686737)" style=""><path d="M 3.851 669.582 L 7.93 642.541 C 8.078 641.557 8.923 640.83 9.919 640.83 L 14.932 640.83 C 16.183 640.83 17.131 641.961 16.912 643.193 L 9.489 684.924 C 9.318 685.884 8.483 686.583 7.508 686.583 L 1.575 686.583 C 0.615 686.583 -0.211 685.904 -0.398 684.963 L -5.419 659.621 L -10.38 684.958 C -10.564 685.902 -11.392 686.583 -12.353 686.583 L -18.316 686.583 C -19.29 686.583 -20.124 685.885 -20.295 684.925 L -27.747 643.194 C -27.967 641.962 -27.02 640.83 -25.767 640.83 L -20.695 640.83 C -19.699 640.83 -18.853 641.558 -18.706 642.543 L -14.657 669.551 L -9.591 642.471 C -9.413 641.519 -8.582 640.83 -7.614 640.83 L -3.192 640.83 C -2.224 640.83 -1.393 641.52 -1.215 642.471 L 3.851 669.582 Z" fill="#000000" style="stroke-width: 33.333px; stroke-opacity: 0.45;"/><path d="M 47.702 671.342 C 48.848 671.342 49.771 672.3 49.637 673.438 C 49.143 677.629 47.733 680.879 45.405 683.189 C 42.702 685.87 38.89 687.211 33.967 687.211 C 28.792 687.211 24.822 685.514 22.057 682.12 C 19.312 678.706 17.94 673.846 17.94 667.54 L 17.94 659.841 C 17.94 653.556 19.365 648.717 22.214 645.323 C 25.063 641.909 29.023 640.201 34.092 640.201 C 39.078 640.201 42.859 641.594 45.436 644.381 C 47.666 646.772 49.07 650.06 49.648 654.242 C 49.808 655.396 48.878 656.385 47.714 656.385 L 42.557 656.385 C 41.466 656.385 40.587 655.514 40.484 654.428 C 40.276 652.243 39.811 650.674 39.089 649.723 C 38.188 648.487 36.522 647.869 34.092 647.869 C 31.62 647.869 29.871 648.738 28.844 650.477 C 27.818 652.195 27.273 655.033 27.211 658.993 L 27.211 667.634 C 27.211 672.18 27.713 675.302 28.719 676.999 C 29.745 678.696 31.495 679.544 33.967 679.544 C 36.397 679.544 38.073 678.957 38.995 677.784 C 39.711 676.855 40.188 675.35 40.423 673.268 C 40.544 672.196 41.418 671.342 42.497 671.342 L 47.702 671.342 Z" fill="#000000" style="stroke-width: 33.333px; stroke-opacity: 0.45;"/></g><g transform="matrix(0.147362, 0, 0, 0.147362, 558.130005, 209.484314)" style=""><path d="M 3.851 669.582 L 7.93 642.541 C 8.078 641.557 8.923 640.83 9.919 640.83 L 14.932 640.83 C 16.183 640.83 17.131 641.961 16.912 643.193 L 9.489 684.924 C 9.318 685.884 8.483 686.583 7.508 686.583 L 1.575 686.583 C 0.615 686.583 -0.211 685.904 -0.398 684.963 L -5.419 659.621 L -10.38 684.958 C -10.564 685.902 -11.392 686.583 -12.353 686.583 L -18.316 686.583 C -19.29 686.583 -20.124 685.885 -20.295 684.925 L -27.747 643.194 C -27.967 641.962 -27.02 640.83 -25.767 640.83 L -20.695 640.83 C -19.699 640.83 -18.853 641.558 -18.706 642.543 L -14.657 669.551 L -9.591 642.471 C -9.413 641.519 -8.582 640.83 -7.614 640.83 L -3.192 640.83 C -2.224 640.83 -1.393 641.52 -1.215 642.471 L 3.851 669.582 Z" fill="#000000" style="stroke-width: 15.2543px;"/><path d="M 47.702 671.342 C 48.848 671.342 49.771 672.3 49.637 673.438 C 49.143 677.629 47.733 680.879 45.405 683.189 C 42.702 685.87 38.89 687.211 33.967 687.211 C 28.792 687.211 24.822 685.514 22.057 682.12 C 19.312 678.706 17.94 673.846 17.94 667.54 L 17.94 659.841 C 17.94 653.556 19.365 648.717 22.214 645.323 C 25.063 641.909 29.023 640.201 34.092 640.201 C 39.078 640.201 42.859 641.594 45.436 644.381 C 47.666 646.772 49.07 650.06 49.648 654.242 C 49.808 655.396 48.878 656.385 47.714 656.385 L 42.557 656.385 C 41.466 656.385 40.587 655.514 40.484 654.428 C 40.276 652.243 39.811 650.674 39.089 649.723 C 38.188 648.487 36.522 647.869 34.092 647.869 C 31.62 647.869 29.871 648.738 28.844 650.477 C 27.818 652.195 27.273 655.033 27.211 658.993 L 27.211 667.634 C 27.211 672.18 27.713 675.302 28.719 676.999 C 29.745 678.696 31.495 679.544 33.967 679.544 C 36.397 679.544 38.073 678.957 38.995 677.784 C 39.711 676.855 40.188 675.35 40.423 673.268 C 40.544 672.196 41.418 671.342 42.497 671.342 L 47.702 671.342 Z" fill="#000000" style="stroke-width: 15.2543px;"/></g><g transform="matrix(0, 0.168705, -0.168705, 0, 267.17984, -439.671844)" style="transform-origin: 10.9436px 663.706px 0px;"><path d="M 3.851 669.582 L 7.93 642.541 C 8.078 641.557 8.923 640.83 9.919 640.83 L 14.932 640.83 C 16.183 640.83 17.131 641.961 16.912 643.193 L 9.489 684.924 C 9.318 685.884 8.483 686.583 7.508 686.583 L 1.575 686.583 C 0.615 686.583 -0.211 685.904 -0.398 684.963 L -5.419 659.621 L -10.38 684.958 C -10.564 685.902 -11.392 686.583 -12.353 686.583 L -18.316 686.583 C -19.29 686.583 -20.124 685.885 -20.295 684.925 L -27.747 643.194 C -27.967 641.962 -27.02 640.83 -25.767 640.83 L -20.695 640.83 C -19.699 640.83 -18.853 641.558 -18.706 642.543 L -14.657 669.551 L -9.591 642.471 C -9.413 641.519 -8.582 640.83 -7.614 640.83 L -3.192 640.83 C -2.224 640.83 -1.393 641.52 -1.215 642.471 L 3.851 669.582 Z" fill="#000000" style="stroke-width: 33.333px;"/><path d="M 47.702 671.342 C 48.848 671.342 49.771 672.3 49.637 673.438 C 49.143 677.629 47.733 680.879 45.405 683.189 C 42.702 685.87 38.89 687.211 33.967 687.211 C 28.792 687.211 24.822 685.514 22.057 682.12 C 19.312 678.706 17.94 673.846 17.94 667.54 L 17.94 659.841 C 17.94 653.556 19.365 648.717 22.214 645.323 C 25.063 641.909 29.023 640.201 34.092 640.201 C 39.078 640.201 42.859 641.594 45.436 644.381 C 47.666 646.772 49.07 650.06 49.648 654.242 C 49.808 655.396 48.878 656.385 47.714 656.385 L 42.557 656.385 C 41.466 656.385 40.587 655.514 40.484 654.428 C 40.276 652.243 39.811 650.674 39.089 649.723 C 38.188 648.487 36.522 647.869 34.092 647.869 C 31.62 647.869 29.871 648.738 28.844 650.477 C 27.818 652.195 27.273 655.033 27.211 658.993 L 27.211 667.634 C 27.211 672.18 27.713 675.302 28.719 676.999 C 29.745 678.696 31.495 679.544 33.967 679.544 C 36.397 679.544 38.073 678.957 38.995 677.784 C 39.711 676.855 40.188 675.35 40.423 673.268 C 40.544 672.196 41.418 671.342 42.497 671.342 L 47.702 671.342 Z" fill="#000000" style="stroke-width: 33.333px;"/></g></svg>